<?xml version="1.0" encoding="UTF-8" standalone="no"?>
<!-- Uploaded to: SVG Repo, www.svgrepo.com, Generator: SVG Repo Mixer Tools -->

<svg
   height="700"
   width="1200"
   version="1.1"
   id="_x32_"
   viewBox="0 0 768 448"
   xml:space="preserve"
   sodipodi:docname="nuttx-and-small-systems-os-components.svg"
   inkscape:version="1.4 (e7c3feb100, 2024-10-09)"
   inkscape:export-filename="1.png"
   inkscape:export-xdpi="28.799999"
   inkscape:export-ydpi="28.799999"
   xmlns:inkscape="http://www.inkscape.org/namespaces/inkscape"
   xmlns:sodipodi="http://sodipodi.sourceforge.net/DTD/sodipodi-0.dtd"
   xmlns="http://www.w3.org/2000/svg"
   xmlns:svg="http://www.w3.org/2000/svg"
   xmlns:rdf="http://www.w3.org/1999/02/22-rdf-syntax-ns#"
   xmlns:cc="http://creativecommons.org/ns#"><defs
   id="defs1" /><sodipodi:namedview
   id="namedview1"
   pagecolor="#222222"
   bordercolor="#666666"
   borderopacity="1.0"
   inkscape:showpageshadow="2"
   inkscape:pageopacity="0.0"
   inkscape:pagecheckerboard="0"
   inkscape:deskcolor="#d1d1d1"
   inkscape:zoom="0.543125"
   inkscape:cx="546.83544"
   inkscape:cy="437.28423"
   inkscape:window-width="1919"
   inkscape:window-height="1064"
   inkscape:window-x="1920"
   inkscape:window-y="15"
   inkscape:window-maximized="1"
   inkscape:current-layer="_x32_" />
<style
   type="text/css"
   id="style1">
	.st0{fill:#000000;}
</style>

<metadata
   id="metadata1"><rdf:RDF><cc:Work
       rdf:about=""><cc:license
         rdf:resource="http://creativecommons.org/publicdomain/zero/1.0/" /></cc:Work><cc:License
       rdf:about="http://creativecommons.org/publicdomain/zero/1.0/"><cc:permits
         rdf:resource="http://creativecommons.org/ns#Reproduction" /><cc:permits
         rdf:resource="http://creativecommons.org/ns#Distribution" /><cc:permits
         rdf:resource="http://creativecommons.org/ns#DerivativeWorks" /></cc:License></rdf:RDF></metadata><path
   d="m 385.20477,150.51018 c 0,0 47.50855,-98.336897 68.32982,4.44578 29.50397,15.86209 76.81826,-8.45484 133.32121,-4.21668 19.46601,1.46522 160.45118,-1.88046 160.49861,130.20424 0.0474,84.40296 -53.30905,127.76061 -87.48638,129.31175 -7.88985,0.33887 -38.53449,0 -40.5109,-0.11221 -10.49421,-0.51069 -21.86257,-1.0333 -21.99583,-6.85838 -0.27105,-12.23484 44.50214,-17.24619 48.01225,-19.89264 3.48752,-2.64886 3.48752,-18.85936 -17.00396,-13.04859 -35.49871,10.57154 -96.34301,3.71078 -110.34056,-0.51307 -13.99753,-4.24532 -23.17715,17.59935 -31.17317,29.23045 -8.00052,11.62632 -20.49827,11.08462 -20.49827,11.08462 0,0 -42.50765,0 -53.01766,0 -10.49197,0 -6.99765,-12.43292 16.00558,-17.70914 23.00324,-5.28338 10.21864,-17.57312 0,-28.23772 -9.41,-9.81985 -33.27156,-35.96713 -50.99382,-39.10041 C 260.84185,303.97178 262.44556,227.36266 263.9499,215.74827 232.21429,184.13862 360.20706,152.11614 385.20477,150.51012 Z"
   id="path1-5"
   style="stroke-width:2.32167" /><g
   id="g2"
   transform="matrix(0.44480372,0,0,0.41731574,761.76629,325.98363)"><rect
     style="fill:#3c34e3;fill-opacity:1;stroke:#3c34e3;stroke-width:2.10593;stroke-miterlimit:4;stroke-dasharray:none;stroke-opacity:1"
     id="rect21-3"
     width="303.13058"
     height="303.13058"
     x="-370.96802"
     y="-499.05396"
     transform="rotate(-44.664692)" /><path
     style="fill:#2b2787;fill-opacity:1;stroke:#2b2787;stroke-width:0.639999px;stroke-linecap:butt;stroke-linejoin:miter;stroke-opacity:1"
     d="m -424.11962,-79.604753 v 33.200024 l -79.8,-158.119971 10,-10.24001 z"
     id="path876"
     inkscape:connector-curvature="0" /><path
     style="fill:#2b2787;fill-opacity:1;stroke:#2b2787;stroke-width:0.639999px;stroke-linecap:butt;stroke-linejoin:miter;stroke-opacity:1"
     d="m -501.37903,21.123929 0.33941,-126.688679 -18.67,-32.72997 0.2282,141.2721987 z"
     id="path874"
     inkscape:connector-curvature="0"
     sodipodi:nodetypes="ccccc" /><path
     style="fill:#2b2787;fill-opacity:1;stroke:#2b2787;stroke-width:0.639999px;stroke-linecap:butt;stroke-linejoin:miter;stroke-opacity:1"
     d="m -335.60084,-135.86231 8.24283,-15.59675 -40.72935,-80.5536 c -5.5222,-10.35957 -12.40856,-13.53091 -20.70407,-9.27724 z"
     id="path909"
     inkscape:connector-curvature="0"
     sodipodi:nodetypes="ccccc" /><path
     style="fill:#2b2787;fill-opacity:1;stroke:#2b2787;stroke-width:0.639999px;stroke-linecap:butt;stroke-linejoin:miter;stroke-opacity:1"
     d="m -267.39951,-175.92472 11.92001,12.48001 -37.71112,75.568658 34.84623,69.239906 -11.8794,11.2005604 -41.61827,-81.5556754 z"
     id="path901"
     inkscape:connector-curvature="0"
     sodipodi:nodetypes="ccccccc" /><rect
     style="fill:#3c34e3;fill-opacity:0.04;stroke:#000000;stroke-width:2.00185;stroke-miterlimit:4;stroke-dasharray:none;stroke-opacity:1"
     id="rect21"
     width="288.14868"
     height="288.14868"
     x="-362.93723"
     y="-491.57538"
     transform="rotate(-44.664692)" /><path
     style="fill:#5a96bd;fill-opacity:1;stroke:#5a96bd;stroke-width:0.639999px;stroke-linecap:butt;stroke-linejoin:miter;stroke-opacity:1"
     d="m -258.34439,-18.636146 27.42488,53.591404 c 11.89774,23.081799 -12.27847,51.117042 -36.10156,33.57372 l -5.21841,-7.933718 c 13.14081,1.317936 30.59393,-11.085276 23.51176,-26.226681 L -270.2995,-6.9047343 Z"
     id="path903"
     inkscape:connector-curvature="0"
     sodipodi:nodetypes="ccccccc" /><path
     style="fill:#5a96bd;fill-opacity:1;stroke:#5a96bd;stroke-width:0.639999px;stroke-linecap:butt;stroke-linejoin:miter;stroke-opacity:1"
     d="m -541.87962,62.835256 v 16.680017 h 40.52 V 21.955255 l -18.12,-18.1199864 V 62.681148 Z"
     id="path872"
     inkscape:connector-curvature="0" /><path
     style="fill:#2b2787;fill-opacity:1;stroke:#2b2787;stroke-width:0.639999px;stroke-linecap:butt;stroke-linejoin:miter;stroke-opacity:1"
     d="m -334.79104,-49.156588 10.29548,18.893889 -45.24763,92.549397 c -9.92106,15.13439 -25.05577,10.512892 -34.83484,4.916482 7.88701,-0.190367 14.49636,-3.290814 18.55331,-12.205105 z"
     id="path863"
     inkscape:connector-curvature="0"
     sodipodi:nodetypes="cccccc" /><path
     style="fill:#cee3f1;fill-opacity:1;stroke:#cee3f1;stroke-width:0.639999px;stroke-linecap:butt;stroke-linejoin:miter;stroke-opacity:1"
     d="m -559.44533,62.450264 40,0.07063 V -139.53614 l 99.27844,197.327413 c 8.46502,13.056315 26.48326,10.917647 32.3085,0.323262 l 53.06735,-107.271123 51.55648,101.182636 c 8.6286,16.126719 41.77679,11.216526 34.50684,-17.657469 l -63.11434,-123.35984 67.90997,-134.437009 c 8.21356,-31.6958 -26.35195,-39.28389 -36.44389,-20.59432 l -55.22486,108.16028 -49.52282,-98.65101 c -11.02608,-23.21162 -38.6681,-15.21345 -39.19674,7.59635 l -0.1535,180.295073 -93.76264,-185.083673 c -10.34454,-21.68983 -37.70177,-21.47546 -40.91871,5.82857 z"
     id="path846"
     inkscape:connector-curvature="0"
     sodipodi:nodetypes="cccccccccccccccccc" /><path
     style="fill:#ffffff;fill-opacity:1;stroke:#ffffff;stroke-width:0.639999px;stroke-linecap:butt;stroke-linejoin:miter;stroke-opacity:1"
     d="m -550.07962,62.555268 h 21.36 V -186.7647 l 112.94487,227.525531 c 5.01849,10.847546 16.39515,14.987828 22.57096,0.282841 l 57.58677,-113.929065 61.1223,121.028409 c 6.23711,5.888347 16.87399,1.361694 14.48376,-8.324854 l -65.10855,-130.642899 69.52001,-137.379973 c 3.69349,-10.45862 -10.43604,-16.07795 -15.69942,-7.01976 l -63.75242,126.07867 -59.05755,-117.09687 c -6.09604,-13.79153 -19.80497,-13.30656 -20.64762,2.20617 V 8.0414406 L -529.76036,-223.97992 c -5.8751,-13.40012 -19.51116,-11.66004 -19.99698,3.52048 z"
     id="path860"
     inkscape:connector-curvature="0"
     sodipodi:nodetypes="cccccccccccccccccc" /><path
     style="fill:#cee3f1;fill-opacity:1;stroke:#ffffff;stroke-width:0.639999px;stroke-linecap:butt;stroke-linejoin:miter;stroke-opacity:1"
     d="M -395.63626,5.4054716 V -189.8691 l 48.69677,96.944349 z"
     id="path862"
     inkscape:connector-curvature="0" /><path
     style="fill:#3c34e3;fill-opacity:1;stroke:#3c34e3;stroke-width:0.639999px;stroke-linecap:butt;stroke-linejoin:miter;stroke-opacity:1"
     d="m -385.78808,-145.02185 0.34286,103.15224 26.8129,-51.647143 z"
     id="path856"
     inkscape:connector-curvature="0"
     sodipodi:nodetypes="cccc" /><path
     style="fill:#2b2787;fill-opacity:1;stroke:#2b2787;stroke-width:0.639999px;stroke-linecap:butt;stroke-linejoin:miter;stroke-opacity:1"
     d="m -385.44522,-41.86961 17.4791,-33.666412 -0.0404,-35.840198 -17.78153,-33.64563 0.34285,103.15224 v 0"
     id="path858"
     inkscape:connector-curvature="0" /><path
     style="fill:#5a96bd;fill-opacity:1;stroke:#5a96bd;stroke-width:0.639999px;stroke-linecap:butt;stroke-linejoin:miter;stroke-opacity:1"
     d="m -503.91962,-204.5247 -17.60703,-33.57933 c 5.26339,-3.66893 12.2489,-4.49019 17.42164,2.75452 l 10.18539,20.5848 z"
     id="path878"
     inkscape:connector-curvature="0"
     sodipodi:nodetypes="ccccc" /><path
     style="fill:#5a96bd;fill-opacity:1;stroke:#5a96bd;stroke-width:0.639999px;stroke-linecap:butt;stroke-linejoin:miter;stroke-opacity:1"
     d="m -255.4795,-163.44471 23.92,-50.72 c 5.12081,-14.50556 -6.30544,-23.26595 -11.15313,-25.07314 2.00558,5.58212 0.97366,10.82728 -1.21946,15.80958 l -23.46742,47.50355 z"
     id="path907"
     inkscape:connector-curvature="0"
     sodipodi:nodetypes="cccccc" /></g><text
   xml:space="preserve"
   style="font-size:122.88px;line-height:1.25;font-family:Acme;-inkscape-font-specification:Acme;letter-spacing:0px;word-spacing:0px;fill:#afbdcc;fill-opacity:1;stroke-width:0.64"
   x="3.517215"
   y="105.88545"
   id="text2"><tspan
     sodipodi:role="line"
     id="tspan2"
     style="font-size:122.88px;fill:#afbdcc;fill-opacity:1;stroke-width:0.64"
     x="3.517215"
     y="105.88545">SMALL NuttX</tspan><tspan
     sodipodi:role="line"
     style="font-size:61.44px;fill:#afbdcc;fill-opacity:1;stroke-width:0.64"
     x="3.517215"
     y="259.48544"
     id="tspan3">&quot;OS Components&quot;</tspan></text></svg>
