<?xml version="1.0" encoding="UTF-8" standalone="no"?>
<!-- Created with Inkscape (http://www.inkscape.org/) -->

<svg
   version="1.1"
   id="svg90"
   width="56"
   height="56"
   viewBox="0 0 56 56"
   sodipodi:docname="emblem.svg"
   inkscape:version="1.3.2 (091e20ef0f, 2023-11-25, custom)"
   inkscape:export-filename="favicon.png"
   inkscape:export-xdpi="82.285713"
   inkscape:export-ydpi="82.285713"
   xmlns:inkscape="http://www.inkscape.org/namespaces/inkscape"
   xmlns:sodipodi="http://sodipodi.sourceforge.net/DTD/sodipodi-0.dtd"
   xmlns="http://www.w3.org/2000/svg"
   xmlns:svg="http://www.w3.org/2000/svg">
  <defs
     id="defs94" />
  <sodipodi:namedview
     id="namedview92"
     pagecolor="#ffffff"
     bordercolor="#666666"
     borderopacity="1.0"
     inkscape:showpageshadow="2"
     inkscape:pageopacity="0.0"
     inkscape:pagecheckerboard="0"
     inkscape:deskcolor="#d1d1d1"
     showgrid="false"
     inkscape:zoom="15.553572"
     inkscape:cx="62.622271"
     inkscape:cy="50.792191"
     inkscape:window-width="3838"
     inkscape:window-height="2128"
     inkscape:window-x="3840"
     inkscape:window-y="30"
     inkscape:window-maximized="1"
     inkscape:current-layer="g96" />
  <g
     inkscape:groupmode="layer"
     inkscape:label="Image"
     id="g96">
    <ellipse
       style="fill:#000000;stroke-width:0.865173"
       id="path256"
       cx="27.772289"
       cy="27.867559"
       rx="27.117836"
       ry="26.193539" />
    <ellipse
       style="fill:#ececec;stroke-width:0.673355"
       id="ellipse260"
       cx="27.772289"
       cy="27.867559"
       rx="21.105513"
       ry="20.386141" />
    <path
       style="fill:#000000;stroke-width:1.20274"
       d="m 28.923772,39.754378 c -2.100274,1.910571 -4.153642,3.900662 -6.481712,5.535475 -0.732119,0.110211 0.364282,-1.564058 0.432014,-2.086226 1.326288,-3.273687 2.84791,-6.462691 4.289766,-9.686036 -2.148952,-2.1222 -4.297907,-4.244398 -6.446865,-6.366593 1.030297,-4.847869 1.763742,-9.774744 3.286377,-14.502824 0.20191,-0.959099 0.853617,-1.663524 1.527111,-2.323073 3.368748,0.858242 6.737497,1.716485 10.106245,2.574729 -2.149615,4.689617 -4.299238,9.37923 -6.448869,14.06884 2.174722,2.14764 4.349443,4.295283 6.524161,6.442927 -2.262743,2.11426 -4.525485,4.228521 -6.788228,6.342781 z"
       id="path21456" />
    <path
       style="fill:#375a7f;stroke-width:1.20274;fill-opacity:1"
       d="m 28.628166,38.345035 c -2.100274,1.910571 -4.153642,3.900662 -6.481712,5.535475 -0.732119,0.110211 0.364282,-1.564058 0.432014,-2.086226 1.326288,-3.273687 2.84791,-6.462691 4.289766,-9.686036 -2.148952,-2.1222 -4.297907,-4.244398 -6.446865,-6.366593 1.030297,-4.847869 1.763742,-9.774744 3.286377,-14.502824 0.20191,-0.959099 0.853617,-1.6635242 1.527111,-2.3230732 3.368748,0.858242 6.737497,1.7164852 10.106245,2.5747292 -2.149615,4.689617 -4.299238,9.37923 -6.448869,14.06884 2.174722,2.14764 4.349443,4.295283 6.524161,6.442927 -2.262743,2.11426 -4.525485,4.228521 -6.788228,6.342781 z"
       id="path21456-3" />
    <text
       xml:space="preserve"
       style="font-size:40px;line-height:1.25;font-family:Acme;-inkscape-font-specification:Acme;letter-spacing:0px;word-spacing:0px"
       x="1.9950073"
       y="9.4565887"
       id="text1"><tspan
         sodipodi:role="line"
         id="tspan2"
         x="1.9950073"
         y="9.4565887" /></text>
  </g>
</svg>
