<?xml version="1.0" encoding="UTF-8" standalone="no"?>
<!-- Uploaded to: SVG Repo, www.svgrepo.com, Generator: SVG Repo Mixer Tools -->

<svg
   height="800"
   width="1200"
   version="1.1"
   id="_x32_"
   viewBox="0 0 768 512"
   xml:space="preserve"
   sodipodi:docname="small_nuttx_hello.svg"
   inkscape:version="1.4 (e7c3feb100, 2024-10-09)"
   inkscape:export-filename="small_nuttx_hello.png"
   inkscape:export-xdpi="28.799999"
   inkscape:export-ydpi="28.799999"
   xmlns:inkscape="http://www.inkscape.org/namespaces/inkscape"
   xmlns:sodipodi="http://sodipodi.sourceforge.net/DTD/sodipodi-0.dtd"
   xmlns="http://www.w3.org/2000/svg"
   xmlns:svg="http://www.w3.org/2000/svg"
   xmlns:rdf="http://www.w3.org/1999/02/22-rdf-syntax-ns#"
   xmlns:cc="http://creativecommons.org/ns#"><defs
   id="defs1" /><sodipodi:namedview
   id="namedview1"
   pagecolor="#222222"
   bordercolor="#666666"
   borderopacity="1.0"
   inkscape:showpageshadow="2"
   inkscape:pageopacity="0.0"
   inkscape:pagecheckerboard="0"
   inkscape:deskcolor="#d1d1d1"
   inkscape:zoom="0.543125"
   inkscape:cx="544.99425"
   inkscape:cy="437.28423"
   inkscape:window-width="1919"
   inkscape:window-height="1064"
   inkscape:window-x="1920"
   inkscape:window-y="15"
   inkscape:window-maximized="1"
   inkscape:current-layer="_x32_" />
<style
   type="text/css"
   id="style1">
	.st0{fill:#000000;}
</style>
<g
   id="g1"
   transform="translate(254.32377,58.918297)">
	<path
   class="st0"
   d="M 506.046,300.288 431.45,225.7 c 22.354,-11.759 37.606,-35.174 37.606,-62.184 0,-38.806 -31.452,-70.266 -70.259,-70.266 -12.745,0 -24.66,3.448 -34.959,9.38 9.639,14.169 15.281,31.258 15.281,49.646 0,20.479 -7.051,39.304 -18.766,54.31 l -10.357,-7.184 c 10.29,-12.946 16.467,-29.302 16.467,-47.126 0,-41.906 -33.965,-75.886 -75.886,-75.886 -38.97,0 -71.037,29.383 -75.352,67.204 -5.71,0.8 -11.5,1.802 -17.409,3.062 -105.299,22.405 -117.726,128.66 -118.438,170.9 -7.63,0 -15.103,0 -22.094,0 -12.679,0.007 -23.593,2.164 -32.512,5.982 -8.89,3.826 -15.874,9.313 -20.226,16.186 -2.9,4.575 -4.546,9.81 -4.546,15.163 -0.007,5.242 1.602,10.484 4.568,15.082 2.966,4.619 7.222,8.63 12.546,11.966 10.692,6.636 25.676,10.752 45.472,11.508 13.502,0.497 23.592,2.202 30.889,4.464 7.317,2.269 11.796,5.041 14.532,7.592 1.824,1.705 2.929,3.322 3.663,4.871 0.964,2.06 1.304,4.092 1.312,6.065 0.03,3.558 -1.298,6.777 -1.438,7.036 v 0.014 c -2.025,4.152 -0.342,9.157 3.796,11.233 4.174,2.084 9.238,0.4 11.314,-3.774 0.304,-0.682 3.143,-6.258 3.196,-14.51 0,-2.981 -0.408,-6.317 -1.542,-9.78 -1.128,-3.456 -3.003,-7.006 -5.761,-10.306 -5.546,-6.629 -14.355,-12.011 -27.233,-15.459 -8.608,-2.313 -19.122,-3.819 -32.105,-4.308 -13.309,-0.49 -23.54,-2.729 -30.828,-5.747 -7.318,-3.01 -11.574,-6.754 -13.621,-9.972 -1.379,-2.166 -1.883,-4.086 -1.89,-5.977 0.008,-1.928 0.556,-3.944 1.943,-6.161 1.379,-2.202 3.64,-4.537 6.933,-6.687 6.554,-4.286 17.201,-7.637 31.54,-7.615 7.095,0 14.68,0 22.443,0 0.023,0.342 0.037,0.549 0.037,0.549 h 411.912 c 8.215,0 15.63,-4.946 18.773,-12.53 3.149,-7.599 1.407,-16.34 -4.405,-22.153 z M 400.19,278.764 c -7.763,0 -14.05,-6.295 -14.05,-14.058 0,-7.762 6.287,-14.05 14.05,-14.05 7.763,0 14.058,6.288 14.058,14.05 0,7.763 -6.294,14.058 -14.058,14.058 z"
   id="path1" />
</g>
<g
   id="g2"
   transform="matrix(0.44480372,0,0,0.41731574,654.53498,338.94565)"><rect
     style="fill:#3c34e3;fill-opacity:1;stroke:#3c34e3;stroke-width:2.10593;stroke-miterlimit:4;stroke-dasharray:none;stroke-opacity:1"
     id="rect21-3"
     width="303.13058"
     height="303.13058"
     x="-370.96802"
     y="-499.05396"
     transform="rotate(-44.664692)" /><path
     style="fill:#2b2787;fill-opacity:1;stroke:#2b2787;stroke-width:0.639999px;stroke-linecap:butt;stroke-linejoin:miter;stroke-opacity:1"
     d="m -424.11962,-79.604753 v 33.200024 l -79.8,-158.119971 10,-10.24001 z"
     id="path876"
     inkscape:connector-curvature="0" /><path
     style="fill:#2b2787;fill-opacity:1;stroke:#2b2787;stroke-width:0.639999px;stroke-linecap:butt;stroke-linejoin:miter;stroke-opacity:1"
     d="m -501.37903,21.123929 0.33941,-126.688679 -18.67,-32.72997 0.2282,141.2721987 z"
     id="path874"
     inkscape:connector-curvature="0"
     sodipodi:nodetypes="ccccc" /><path
     style="fill:#2b2787;fill-opacity:1;stroke:#2b2787;stroke-width:0.639999px;stroke-linecap:butt;stroke-linejoin:miter;stroke-opacity:1"
     d="m -335.60084,-135.86231 8.24283,-15.59675 -40.72935,-80.5536 c -5.5222,-10.35957 -12.40856,-13.53091 -20.70407,-9.27724 z"
     id="path909"
     inkscape:connector-curvature="0"
     sodipodi:nodetypes="ccccc" /><path
     style="fill:#2b2787;fill-opacity:1;stroke:#2b2787;stroke-width:0.639999px;stroke-linecap:butt;stroke-linejoin:miter;stroke-opacity:1"
     d="m -267.39951,-175.92472 11.92001,12.48001 -37.71112,75.568658 34.84623,69.239906 -11.8794,11.2005604 -41.61827,-81.5556754 z"
     id="path901"
     inkscape:connector-curvature="0"
     sodipodi:nodetypes="ccccccc" /><rect
     style="fill:#3c34e3;fill-opacity:0.04;stroke:#000000;stroke-width:2.00185;stroke-miterlimit:4;stroke-dasharray:none;stroke-opacity:1"
     id="rect21"
     width="288.14868"
     height="288.14868"
     x="-362.93723"
     y="-491.57538"
     transform="rotate(-44.664692)" /><path
     style="fill:#5a96bd;fill-opacity:1;stroke:#5a96bd;stroke-width:0.639999px;stroke-linecap:butt;stroke-linejoin:miter;stroke-opacity:1"
     d="m -258.34439,-18.636146 27.42488,53.591404 c 11.89774,23.081799 -12.27847,51.117042 -36.10156,33.57372 l -5.21841,-7.933718 c 13.14081,1.317936 30.59393,-11.085276 23.51176,-26.226681 L -270.2995,-6.9047343 Z"
     id="path903"
     inkscape:connector-curvature="0"
     sodipodi:nodetypes="ccccccc" /><path
     style="fill:#5a96bd;fill-opacity:1;stroke:#5a96bd;stroke-width:0.639999px;stroke-linecap:butt;stroke-linejoin:miter;stroke-opacity:1"
     d="m -541.87962,62.835256 v 16.680017 h 40.52 V 21.955255 l -18.12,-18.1199864 V 62.681148 Z"
     id="path872"
     inkscape:connector-curvature="0" /><path
     style="fill:#2b2787;fill-opacity:1;stroke:#2b2787;stroke-width:0.639999px;stroke-linecap:butt;stroke-linejoin:miter;stroke-opacity:1"
     d="m -334.79104,-49.156588 10.29548,18.893889 -45.24763,92.549397 c -9.92106,15.13439 -25.05577,10.512892 -34.83484,4.916482 7.88701,-0.190367 14.49636,-3.290814 18.55331,-12.205105 z"
     id="path863"
     inkscape:connector-curvature="0"
     sodipodi:nodetypes="cccccc" /><path
     style="fill:#cee3f1;fill-opacity:1;stroke:#cee3f1;stroke-width:0.639999px;stroke-linecap:butt;stroke-linejoin:miter;stroke-opacity:1"
     d="m -559.44533,62.450264 40,0.07063 V -139.53614 l 99.27844,197.327413 c 8.46502,13.056315 26.48326,10.917647 32.3085,0.323262 l 53.06735,-107.271123 51.55648,101.182636 c 8.6286,16.126719 41.77679,11.216526 34.50684,-17.657469 l -63.11434,-123.35984 67.90997,-134.437009 c 8.21356,-31.6958 -26.35195,-39.28389 -36.44389,-20.59432 l -55.22486,108.16028 -49.52282,-98.65101 c -11.02608,-23.21162 -38.6681,-15.21345 -39.19674,7.59635 l -0.1535,180.295073 -93.76264,-185.083673 c -10.34454,-21.68983 -37.70177,-21.47546 -40.91871,5.82857 z"
     id="path846"
     inkscape:connector-curvature="0"
     sodipodi:nodetypes="cccccccccccccccccc" /><path
     style="fill:#ffffff;fill-opacity:1;stroke:#ffffff;stroke-width:0.639999px;stroke-linecap:butt;stroke-linejoin:miter;stroke-opacity:1"
     d="m -550.07962,62.555268 h 21.36 V -186.7647 l 112.94487,227.525531 c 5.01849,10.847546 16.39515,14.987828 22.57096,0.282841 l 57.58677,-113.929065 61.1223,121.028409 c 6.23711,5.888347 16.87399,1.361694 14.48376,-8.324854 l -65.10855,-130.642899 69.52001,-137.379973 c 3.69349,-10.45862 -10.43604,-16.07795 -15.69942,-7.01976 l -63.75242,126.07867 -59.05755,-117.09687 c -6.09604,-13.79153 -19.80497,-13.30656 -20.64762,2.20617 V 8.0414406 L -529.76036,-223.97992 c -5.8751,-13.40012 -19.51116,-11.66004 -19.99698,3.52048 z"
     id="path860"
     inkscape:connector-curvature="0"
     sodipodi:nodetypes="cccccccccccccccccc" /><path
     style="fill:#cee3f1;fill-opacity:1;stroke:#ffffff;stroke-width:0.639999px;stroke-linecap:butt;stroke-linejoin:miter;stroke-opacity:1"
     d="M -395.63626,5.4054716 V -189.8691 l 48.69677,96.944349 z"
     id="path862"
     inkscape:connector-curvature="0" /><path
     style="fill:#3c34e3;fill-opacity:1;stroke:#3c34e3;stroke-width:0.639999px;stroke-linecap:butt;stroke-linejoin:miter;stroke-opacity:1"
     d="m -385.78808,-145.02185 0.34286,103.15224 26.8129,-51.647143 z"
     id="path856"
     inkscape:connector-curvature="0"
     sodipodi:nodetypes="cccc" /><path
     style="fill:#2b2787;fill-opacity:1;stroke:#2b2787;stroke-width:0.639999px;stroke-linecap:butt;stroke-linejoin:miter;stroke-opacity:1"
     d="m -385.44522,-41.86961 17.4791,-33.666412 -0.0404,-35.840198 -17.78153,-33.64563 0.34285,103.15224 v 0"
     id="path858"
     inkscape:connector-curvature="0" /><path
     style="fill:#5a96bd;fill-opacity:1;stroke:#5a96bd;stroke-width:0.639999px;stroke-linecap:butt;stroke-linejoin:miter;stroke-opacity:1"
     d="m -503.91962,-204.5247 -17.60703,-33.57933 c 5.26339,-3.66893 12.2489,-4.49019 17.42164,2.75452 l 10.18539,20.5848 z"
     id="path878"
     inkscape:connector-curvature="0"
     sodipodi:nodetypes="ccccc" /><path
     style="fill:#5a96bd;fill-opacity:1;stroke:#5a96bd;stroke-width:0.639999px;stroke-linecap:butt;stroke-linejoin:miter;stroke-opacity:1"
     d="m -255.4795,-163.44471 23.92,-50.72 c 5.12081,-14.50556 -6.30544,-23.26595 -11.15313,-25.07314 2.00558,5.58212 0.97366,10.82728 -1.21946,15.80958 l -23.46742,47.50355 z"
     id="path907"
     inkscape:connector-curvature="0"
     sodipodi:nodetypes="cccccc" /></g><text
   xml:space="preserve"
   style="font-size:122.88px;line-height:1.25;font-family:Acme;-inkscape-font-specification:Acme;letter-spacing:0px;word-spacing:0px;fill:#afbdcc;fill-opacity:1;stroke-width:0.64"
   x="3.517215"
   y="105.88545"
   id="text2"><tspan
     sodipodi:role="line"
     id="tspan2"
     style="font-size:122.88px;fill:#afbdcc;fill-opacity:1;stroke-width:0.64"
     x="3.517215"
     y="105.88545">SMALL NuttX</tspan><tspan
     sodipodi:role="line"
     style="font-size:61.44px;fill:#afbdcc;fill-opacity:1;stroke-width:0.64"
     x="3.517215"
     y="259.48544"
     id="tspan3">&quot;subtitle here&quot;</tspan></text><metadata
   id="metadata1"><rdf:RDF><cc:Work
       rdf:about=""><cc:license
         rdf:resource="http://creativecommons.org/publicdomain/zero/1.0/" /></cc:Work><cc:License
       rdf:about="http://creativecommons.org/publicdomain/zero/1.0/"><cc:permits
         rdf:resource="http://creativecommons.org/ns#Reproduction" /><cc:permits
         rdf:resource="http://creativecommons.org/ns#Distribution" /><cc:permits
         rdf:resource="http://creativecommons.org/ns#DerivativeWorks" /></cc:License></rdf:RDF></metadata></svg>
